<svg width="49.99999999999999" height="49.99999999999999" xmlns="http://www.w3.org/2000/svg" xmlns:svg="http://www.w3.org/2000/svg">
 <style>.s0 { fill: #ffff} 
		.s1 { fill: #ffff }</style>
 <g>
  <title>Layer 2</title>
  <g id="svg_9" stroke="null">
   <path fill="black" id="svg_3" d="m21.300063,9.369081zm16.906662,9.711451l0,19.888733l-17.309202,9.944366l-13.266676,-7.620889l2.386689,-1.37193l0,-2.175774l10.879988,6.251799l13.02972,-7.484548l0,-14.971938l-12.627182,-7.251633l0,-4.919635l16.906662,9.711451l0.000001,0l0,-0.000002zm-17.714597,-4.791816l-12.627182,7.251633l0,12.032087l-2.301042,-1.323644l-1.978439,1.139014l0,-14.307275l16.906662,-9.711451l0,4.919635l0.000001,0l0,0.000001z" class="s1" fill-rule="evenodd" opacity="0.5" stroke="null"/>
   <path id="svg_4" d="m25.231247,31.541524c0,0.042606 -0.014274,0.079533 -0.042823,0.107937l-0.550994,0.551044c0.008565,0.034085 0.014274,0.068171 0.014274,0.105097c0,0.215873 -0.177004,0.39198 -0.393975,0.39198c-0.216971,0 -0.39112,-0.176108 -0.39112,-0.39198c0,-0.215873 0.177004,-0.38914 0.39112,-0.38914c0.068518,0 0.13418,0.014202 0.188422,0.045447l0.491041,-0.482875l0,-2.104764c-0.168439,-0.053968 -0.26836,-0.19883 -0.26836,-0.369256c0,-0.215873 0.174148,-0.39198 0.39112,-0.39198c0.216971,0 0.388266,0.176108 0.388266,0.39198c0,0.150543 -0.068518,0.281203 -0.216971,0.346533l0,2.189977l-0.000001,0l0.000001,0zm-3.157509,5.317296l-0.399684,0l0,-7.223229c0,-0.051128 0.02284,-0.099415 0.059952,-0.136341l0.887871,-0.877695c-0.025694,-0.059649 -0.039969,-0.124979 -0.039969,-0.19315c0,-0.284043 0.231246,-0.514119 0.516735,-0.514119c0.282634,0 0.513881,0.230075 0.513881,0.514119c0,0.281203 -0.231246,0.511279 -0.513881,0.511279c-0.074227,0 -0.13989,-0.017042 -0.202697,-0.045447l-0.822209,0.818046l0,1.249791l1.261862,-1.255473c-0.005709,-0.022724 -0.01142,-0.045447 -0.01142,-0.071011c0,-0.215873 0.177004,-0.38914 0.39112,-0.38914c0.216971,0 0.393975,0.173266 0.393975,0.38914c0,0.215873 -0.177004,0.39198 -0.393975,0.39198c-0.051388,0 -0.094212,-0.008522 -0.137035,-0.028404l-1.504527,1.49975c0,0 0,5.359902 0,5.359902l0,0.000001l0.000001,0.000001zm-1.0506,0l0,-8.578117c0,-0.051128 0.02284,-0.099415 0.057098,-0.133501l0.759401,-0.755556c-0.045678,-0.082373 -0.071372,-0.178948 -0.071372,-0.281203c0,-0.332331 0.271214,-0.599332 0.605237,-0.599332c0.331168,0 0.602382,0.267001 0.602382,0.599332c0,0.329491 -0.271214,0.599332 -0.602382,0.599332c-0.091357,0 -0.182713,-0.019882 -0.259794,-0.056809l-0.710868,0.707269l0,8.498584l-0.3797,0l-0.000002,0.000001zm-0.630931,0l0,-8.498584l-0.716578,-0.704428c-0.077081,0.034085 -0.168439,0.053968 -0.25694,0.053968c-0.331168,0 -0.605237,-0.269841 -0.605237,-0.599332c0,-0.332331 0.271214,-0.599332 0.602382,-0.599332c0.331168,0 0.602382,0.267001 0.602382,0.599332c0,0.102255 -0.025694,0.20167 -0.074227,0.284043l0.762255,0.752716c0.037114,0.034085 0.062807,0.082373 0.062807,0.133501l0,8.578117l-0.376846,0l0,-0.000001l0.000002,0zm-0.27407,0l-0.376846,0l0,-5.365584l-1.513092,-1.494069c-0.045678,0.019882 -0.097066,0.028404 -0.148455,0.028404c-0.216971,0 -0.396829,-0.176108 -0.396829,-0.39198c0,-0.215873 0.177004,-0.39198 0.39112,-0.39198c0.216971,0 0.393975,0.176108 0.393975,0.39198c0,0.025564 0.005709,0.048287 0.002855,0.071011l1.270426,1.252633l0,-1.246951l-0.833628,-0.818046c-0.062807,0.028404 -0.13989,0.045447 -0.211262,0.045447c-0.285489,0 -0.516735,-0.230075 -0.516735,-0.511279c0,-0.284043 0.228391,-0.514119 0.511025,-0.514119c0.285489,0 0.516735,0.230075 0.516735,0.514119c0,0.068171 -0.017129,0.136341 -0.042823,0.19599l0.890725,0.874855c0.037114,0.036926 0.062807,0.085213 0.062807,0.133501l0,7.226069l0.000003,0l-0.000001,-0.000001zm5.153078,-7.853806c0,-0.116457 -0.094212,-0.210192 -0.214116,-0.210192c-0.11705,0 -0.211262,0.093735 -0.211262,0.210192c0,0.116457 0.094212,0.210192 0.211262,0.210192c0.119906,0 0.214116,-0.093735 0.214116,-0.210192zm-1.875662,-0.576608c0,-0.164746 -0.131325,-0.298245 -0.296908,-0.298245c-0.162729,0 -0.296908,0.133501 -0.296908,0.298245c0,0.161905 0.13418,0.295405 0.296908,0.295405c0.165584,0 0.296908,-0.133501 0.296908,-0.295405zm0.533865,1.207185c0,-0.116457 -0.097066,-0.210192 -0.214116,-0.210192c-0.11705,0 -0.211262,0.093735 -0.211262,0.210192c0,0.116457 0.094212,0.210192 0.211262,0.210192c0.11705,0 0.214116,-0.093735 0.214116,-0.210192zm-4.941816,-1.207185c0,-0.164746 -0.131325,-0.298245 -0.296908,-0.298245c-0.162729,0 -0.296908,0.133501 -0.296908,0.298245c0,0.161905 0.13418,0.295405 0.296908,0.295405c0.165584,0 0.296908,-0.133501 0.296908,-0.295405zm-0.702303,1.207185c0,-0.116457 -0.094212,-0.210192 -0.211262,-0.210192c-0.11705,0 -0.211262,0.093735 -0.211262,0.210192c0,0.116457 0.094212,0.210192 0.211262,0.210192c0.11705,0 0.211262,-0.093735 0.211262,-0.210192zm0.79937,-2.525148c0,0.181788 0.148455,0.329491 0.331168,0.329491c0.068518,0 0.13418,-0.022724 0.185568,-0.056809l0.088501,-0.088053c0.037114,-0.053968 0.057098,-0.116457 0.057098,-0.184628c0,-0.181788 -0.148455,-0.329491 -0.331168,-0.329491c-0.182713,0 -0.331168,0.147703 -0.331168,0.329491l0.000001,-0.000001zm3.288834,0.329491c0.182713,0 0.331168,-0.147703 0.331168,-0.329491c0,-0.181788 -0.148455,-0.329491 -0.331168,-0.329491c-0.182713,0 -0.331168,0.147703 -0.331168,0.329491c0,0.073851 0.025694,0.144862 0.068518,0.19883l0.059952,0.059649c0.057098,0.045447 0.125615,0.071011 0.202697,0.071011l0.000001,0.000001zm-4.450775,4.868507c0,0.215873 -0.177004,0.38914 -0.393975,0.38914c-0.216971,0 -0.39112,-0.176108 -0.39112,-0.38914q0,-0.053968 0.014274,-0.105097l-0.550994,-0.551044c-0.028549,-0.031244 -0.037114,-0.068171 -0.037114,-0.110777l0,-2.189977c-0.105632,-0.06533 -0.216971,-0.19599 -0.216971,-0.346533c0,-0.215873 0.171293,-0.39198 0.388266,-0.39198c0.216971,0 0.39112,0.176108 0.39112,0.39198c0,0.173266 -0.099921,0.318129 -0.26836,0.369256l0,2.104764l0.485332,0.482875c0.057098,-0.028404 0.119906,-0.045447 0.185568,-0.045447c0.216971,0 0.393975,0.176108 0.393975,0.39198l-0.000001,0zm-0.179858,-0.00284c0,-0.116457 -0.094212,-0.210192 -0.214116,-0.210192c-0.11705,0 -0.211262,0.093735 -0.211262,0.210192c0,0.119299 0.094212,0.213032 0.211262,0.213032c0.119906,0 0.214116,-0.093735 0.214116,-0.213032zm0.3797,-1.008355c0,-0.215873 0.174148,-0.39198 0.39112,-0.39198c0.216971,0 0.399684,0.176108 0.399684,0.39198c0,0.150543 -0.077081,0.281203 -0.205553,0.346533l0,0.891897c0.12847,0.06533 0.205553,0.19883 0.205553,0.349374c0,0.215873 -0.182713,0.39198 -0.399684,0.39198c-0.216971,0 -0.388266,-0.176108 -0.388266,-0.39198c0,-0.170426 0.099921,-0.318129 0.26836,-0.369256l0,-0.849291c-0.168439,-0.053968 -0.271214,-0.19883 -0.271214,-0.369256l0,-0.000001zm0.599527,0c0,-0.116457 -0.094212,-0.213032 -0.214116,-0.213032c-0.11705,0 -0.211262,0.096575 -0.211262,0.213032c0,0.116457 0.094212,0.210192 0.211262,0.210192c0.119906,0 0.214116,-0.093735 0.214116,-0.210192zm4.95038,1.587804c0,0.215873 -0.177004,0.39198 -0.393975,0.39198c-0.216971,0 -0.396829,-0.176108 -0.396829,-0.39198c0,-0.150543 0.099921,-0.281203 0.205553,-0.346533l0,-0.897577c-0.105632,-0.06533 -0.205553,-0.19599 -0.205553,-0.343693c0,-0.215873 0.179858,-0.39198 0.396829,-0.39198c0.216971,0 0.39112,0.176108 0.39112,0.39198c0,0.173266 -0.099921,0.318129 -0.26836,0.369256l0,0.846451c0.168439,0.051128 0.271214,0.19883 0.271214,0.372098l0.000001,-0.000002zm0.79937,-0.576608c0,-0.119299 -0.094212,-0.213032 -0.211262,-0.213032c-0.11705,0 -0.211262,0.093735 -0.211262,0.213032c0,0.116457 0.094212,0.210192 0.211262,0.210192c0.11705,0 0.211262,-0.093735 0.211262,-0.210192zm-0.979228,0.576608c0,-0.116457 -0.094212,-0.210192 -0.211262,-0.210192c-0.11705,0 -0.211262,0.093735 -0.211262,0.210192c0,0.116457 0.094212,0.210192 0.211262,0.210192c0.11705,0 0.211262,-0.093735 0.211262,-0.210192zm0,-1.587804c0,-0.116457 -0.094212,-0.213032 -0.211262,-0.213032c-0.11705,0 -0.214116,0.096575 -0.214116,0.213032c0,0.116457 0.097066,0.210192 0.214116,0.210192c0.11705,0 0.211262,-0.093735 0.211262,-0.210192zm-6.549119,-2.292232c0,-0.116457 -0.094212,-0.210192 -0.211262,-0.210192c-0.11705,0 -0.211262,0.093735 -0.211262,0.210192c0,0.116457 0.094212,0.210192 0.211262,0.210192c0.11705,0 0.211262,-0.093735 0.211262,-0.210192zm1.778597,3.880036c0,-0.116457 -0.094212,-0.210192 -0.211262,-0.210192c-0.119906,0 -0.214116,0.093735 -0.214116,0.210192c0,0.116457 0.094212,0.210192 0.214116,0.210192c0.11705,0 0.211262,-0.093735 0.211262,-0.210192z" class="s0" fill-rule="evenodd" stroke="null"/>
   <path id="svg_5" d="m41.247182,16.899077l0,-0.332331l-3.708503,2.130326l0.668045,0.383458l0,0.159064l3.557194,-2.042273l-0.516735,-0.298245l0,0.000001l-0.000001,0zm-7.317085,4.800336l-0.002855,0l0.002855,0zm0,0l0,-0.159064l-0.668045,-0.383458l-5.278693,3.030745l0.202697,0.346533l0.202697,0.349374l5.541342,-3.184129l0.000003,-0.000001l-0.000001,0z" class="s0" fill-rule="evenodd" stroke="null"/>
   <path fill="black" id="svg_6" d="m13.200738,33.441776l-3.183204,1.829241l0,4.649794l-4.453629,2.559233l-4.450775,-2.559233l0,-5.112785l4.450775,-2.559233l4.051089,2.326317l3.25172,-1.869007l0.017129,0.00284l0,-8.828074l7.608283,-4.371431l0,-11.86166l-2.552273,-1.468505l0,-3.394321l2.957666,-1.69858l2.954811,1.69858l0,3.394321l-2.552273,1.468505l0,11.86166l7.608283,4.371431l0,9.205852l-5.147367,2.956893l0,-1.039599l-0.025694,0l4.256642,-2.445615l0,-8.149211l-7.094403,-4.076026l-7.094403,4.076026l0,8.149211l4.256642,2.445615l-0.028549,0l0,1.039599l-4.741973,-2.723978l-0.088501,0.122139l0.000004,0.000001zm31.866289,-23.123989l3.819844,2.192817l0,4.388474l-3.819844,2.192817l-3.819844,-2.192817l0,-4.388474l3.819844,-2.192817zm0,0.928822l-3.011909,1.729826l0,3.45965l3.011909,1.729826l3.011909,-1.729826l0,-3.45965l-3.011909,-1.729826zm-23.018983,28.461168l-0.211262,0.798162l-1.884228,-0.028404l-0.205553,-0.798162l2.301042,0.028404l0.000001,0zm1.204764,-2.292232l-0.214116,0.801003l-4.2909,-0.031244l-0.205553,-0.798162l4.710569,0.028404l0,-0.000001zm-0.314038,1.144696l-0.211262,0.801003l-3.662825,-0.031244l-0.208407,-0.798162l4.082494,0.028404l0,-0.000001zm-2.038392,-36.547889l-2.149733,1.232749l0,2.47118l2.149733,1.232749l2.146878,-1.232749l0,-2.47118l-2.146878,-1.232749zm-15.330763,31.165263l-3.645695,2.093402l0,4.186802l3.645695,2.093402l3.64284,-2.093402l0,-4.186802l-3.64284,-2.093402z" class="s0" fill-rule="evenodd" stroke="null"/>
  </g>
 </g>
</svg>