<svg width="500" height="500" xmlns="http://www.w3.org/2000/svg" xmlns:svg="http://www.w3.org/2000/svg">
 <g>
  <title>Hive banner logo</title>
  <style>.s0 {fill: #ffff} 
		.s1 { fill: #ffff }</style>
  <g stroke="null" id="svg_9">
   <path stroke="null" fill="black" id="svg_3" d="m212.331022,90.052217zm172.126258,99.375162l0,203.517073l-176.224507,101.75853l-135.067666,-77.982902l24.298812,-14.038665l0,-22.264226l110.768854,63.9733l132.655223,-76.587752l0,-153.20458l-128.556987,-74.204385l0,-50.341555l172.126258,99.375162l0.000013,0zm-180.351819,-49.033607l-128.556987,74.204385l0,123.121727l-23.426846,-13.544556l-20.142437,11.655284l0,-146.403232l172.126258,-99.375162l0,50.341555l0.000013,0z" class="s1" fill-rule="evenodd" opacity="0.5"/>
   <path stroke="null" id="svg_4" d="m252.354305,316.937997c0,0.435983 -0.145328,0.81384 -0.435983,1.104495l-5.609651,5.638714c0.087202,0.348781 0.145328,0.697575 0.145328,1.075432c0,2.208977 -1.80207,4.011047 -4.011047,4.011047c-2.208977,0 -3.981984,-1.80207 -3.981984,-4.011047c0,-2.208977 1.80207,-3.981984 3.981984,-3.981984c0.697575,0 1.366087,0.145328 1.918322,0.465046l4.999277,-4.941152l0,-21.537588c-1.714868,-0.552248 -2.732162,-2.034586 -2.732162,-3.778518c0,-2.208977 1.772994,-4.011047 3.981984,-4.011047c2.208977,0 3.952921,1.80207 3.952921,4.011047c0,1.540478 -0.697575,2.877489 -2.208977,3.546001l0,22.409553l-0.000013,0zm-32.146516,54.410728l-4.069173,0l0,-73.913729c0,-0.523185 0.23253,-1.017293 0.610373,-1.39515l9.039387,-8.981262c-0.261592,-0.610373 -0.40692,-1.278886 -0.40692,-1.976461c0,-2.906552 2.354304,-5.26087 5.26087,-5.26087c2.877489,0 5.231807,2.354304 5.231807,5.26087c0,2.877489 -2.354304,5.231807 -5.231807,5.231807c-0.755701,0 -1.424213,-0.17439 -2.063649,-0.465046l-8.370888,8.370888l0,12.788842l12.846981,-12.846981c-0.058126,-0.23253 -0.116265,-0.465046 -0.116265,-0.726638c0,-2.208977 1.80207,-3.981984 3.981984,-3.981984c2.208977,0 4.011047,1.772994 4.011047,3.981984c0,2.208977 -1.80207,4.011047 -4.011047,4.011047c-0.523185,0 -0.959168,-0.087202 -1.39515,-0.290655l-15.31755,15.346613c0,0 0,54.846711 0,54.846711l0,0.000013zm-10.69613,0l0,-87.778004c0,-0.523185 0.23253,-1.017293 0.58131,-1.366087l7.731439,-7.731439c-0.465046,-0.842903 -0.726638,-1.831133 -0.726638,-2.877489c0,-3.400674 2.761224,-6.132835 6.161898,-6.132835c3.371611,0 6.132835,2.732162 6.132835,6.132835c0,3.371611 -2.761224,6.132835 -6.132835,6.132835c-0.930105,0 -1.860196,-0.203453 -2.64496,-0.58131l-7.237331,7.237331l0,86.964164l-3.865719,0zm-6.423491,0l0,-86.964164l-7.295456,-7.208254c-0.784764,0.348781 -1.714868,0.552248 -2.615897,0.552248c-3.371611,0 -6.161898,-2.761224 -6.161898,-6.132835c0,-3.400674 2.761224,-6.132835 6.132835,-6.132835c3.371611,0 6.132835,2.732162 6.132835,6.132835c0,1.046356 -0.261592,2.063649 -0.755701,2.906552l7.760502,7.702376c0.377857,0.348781 0.639436,0.842903 0.639436,1.366087l0,87.778004l-3.836657,0l0,-0.000013zm-2.790301,0l-3.836657,0l0,-54.90485l-15.404752,-15.288488c-0.465046,0.203453 -0.98823,0.290655 -1.511415,0.290655c-2.208977,0 -4.04011,-1.80207 -4.04011,-4.011047c0,-2.208977 1.80207,-4.011047 3.981984,-4.011047c2.208977,0 4.011047,1.80207 4.011047,4.011047c0,0.261592 0.058126,0.494108 0.029063,0.726638l12.93417,12.817918l0,-12.759779l-8.48714,-8.370888c-0.639436,0.290655 -1.424213,0.465046 -2.150851,0.465046c-2.906552,0 -5.26087,-2.354304 -5.26087,-5.231807c0,-2.906552 2.325242,-5.26087 5.202731,-5.26087c2.906552,0 5.26087,2.354304 5.26087,5.26087c0,0.697575 -0.17439,1.39515 -0.435983,2.005524l9.06845,8.952199c0.377857,0.377857 0.639436,0.871966 0.639436,1.366087l0,73.942792l0.000027,0zm52.463344,-80.366283c0,-1.191684 -0.959168,-2.150851 -2.179914,-2.150851c-1.191684,0 -2.150851,0.959168 -2.150851,2.150851c0,1.191684 0.959168,2.150851 2.150851,2.150851c1.22076,0 2.179914,-0.959168 2.179914,-2.150851zm-19.096068,-5.900306c0,-1.685806 -1.337011,-3.05188 -3.022817,-3.05188c-1.656743,0 -3.022817,1.366087 -3.022817,3.05188c0,1.656743 1.366087,3.022817 3.022817,3.022817c1.685806,0 3.022817,-1.366087 3.022817,-3.022817zm5.43526,12.352859c0,-1.191684 -0.98823,-2.150851 -2.179914,-2.150851c-1.191684,0 -2.150851,0.959168 -2.150851,2.150851c0,1.191684 0.959168,2.150851 2.150851,2.150851c1.191684,0 2.179914,-0.959168 2.179914,-2.150851zm-50.312493,-12.352859c0,-1.685806 -1.337011,-3.05188 -3.022817,-3.05188c-1.656743,0 -3.022817,1.366087 -3.022817,3.05188c0,1.656743 1.366087,3.022817 3.022817,3.022817c1.685806,0 3.022817,-1.366087 3.022817,-3.022817zm-7.150129,12.352859c0,-1.191684 -0.959168,-2.150851 -2.150851,-2.150851c-1.191684,0 -2.150851,0.959168 -2.150851,2.150851c0,1.191684 0.959168,2.150851 2.150851,2.150851c1.191684,0 2.150851,-0.959168 2.150851,-2.150851zm8.138359,-25.83929c0,1.860196 1.511415,3.371611 3.371611,3.371611c0.697575,0 1.366087,-0.23253 1.889259,-0.58131l0.901028,-0.901028c0.377857,-0.552248 0.58131,-1.191684 0.58131,-1.889259c0,-1.860196 -1.511415,-3.371611 -3.371611,-3.371611c-1.860196,0 -3.371611,1.511415 -3.371611,3.371611l0.000013,-0.000013zm33.483527,3.371611c1.860196,0 3.371611,-1.511415 3.371611,-3.371611c0,-1.860196 -1.511415,-3.371611 -3.371611,-3.371611c-1.860196,0 -3.371611,1.511415 -3.371611,3.371611c0,0.755701 0.261592,1.482339 0.697575,2.034586l0.610373,0.610373c0.58131,0.465046 1.278886,0.726638 2.063649,0.726638l0.000013,0.000013zm-45.313215,49.818371c0,2.208977 -1.80207,3.981984 -4.011047,3.981984c-2.208977,0 -3.981984,-1.80207 -3.981984,-3.981984q0,-0.552248 0.145328,-1.075432l-5.609651,-5.638714c-0.290655,-0.319718 -0.377857,-0.697575 -0.377857,-1.133558l0,-22.409553c-1.075432,-0.668512 -2.208977,-2.005524 -2.208977,-3.546001c0,-2.208977 1.743931,-4.011047 3.952921,-4.011047c2.208977,0 3.981984,1.80207 3.981984,4.011047c0,1.772994 -1.017293,3.255346 -2.732162,3.778518l0,21.537588l4.941152,4.941152c0.58131,-0.290655 1.22076,-0.465046 1.889259,-0.465046c2.208977,0 4.011047,1.80207 4.011047,4.011047l-0.000013,0zm-1.831133,-0.029063c0,-1.191684 -0.959168,-2.150851 -2.179914,-2.150851c-1.191684,0 -2.150851,0.959168 -2.150851,2.150851c0,1.22076 0.959168,2.179914 2.150851,2.179914c1.22076,0 2.179914,-0.959168 2.179914,-2.179914zm3.865719,-10.318273c0,-2.208977 1.772994,-4.011047 3.981984,-4.011047c2.208977,0 4.069173,1.80207 4.069173,4.011047c0,1.540478 -0.784764,2.877489 -2.092725,3.546001l0,9.126589c1.307948,0.668512 2.092725,2.034586 2.092725,3.575064c0,2.208977 -1.860196,4.011047 -4.069173,4.011047c-2.208977,0 -3.952921,-1.80207 -3.952921,-4.011047c0,-1.743931 1.017293,-3.255346 2.732162,-3.778518l0,-8.690607c-1.714868,-0.552248 -2.761224,-2.034586 -2.761224,-3.778518l0,-0.000013zm6.103773,0c0,-1.191684 -0.959168,-2.179914 -2.179914,-2.179914c-1.191684,0 -2.150851,0.98823 -2.150851,2.179914c0,1.191684 0.959168,2.150851 2.150851,2.150851c1.22076,0 2.179914,-0.959168 2.179914,-2.150851zm50.399681,16.247655c0,2.208977 -1.80207,4.011047 -4.011047,4.011047c-2.208977,0 -4.04011,-1.80207 -4.04011,-4.011047c0,-1.540478 1.017293,-2.877489 2.092725,-3.546001l0,-9.184715c-1.075432,-0.668512 -2.092725,-2.005524 -2.092725,-3.516939c0,-2.208977 1.831133,-4.011047 4.04011,-4.011047c2.208977,0 3.981984,1.80207 3.981984,4.011047c0,1.772994 -1.017293,3.255346 -2.732162,3.778518l0,8.661544c1.714868,0.523185 2.761224,2.034586 2.761224,3.807594zm8.138359,-5.900306c0,-1.22076 -0.959168,-2.179914 -2.150851,-2.179914c-1.191684,0 -2.150851,0.959168 -2.150851,2.179914c0,1.191684 0.959168,2.150851 2.150851,2.150851c1.191684,0 2.150851,-0.959168 2.150851,-2.150851zm-9.969492,5.900306c0,-1.191684 -0.959168,-2.150851 -2.150851,-2.150851c-1.191684,0 -2.150851,0.959168 -2.150851,2.150851c0,1.191684 0.959168,2.150851 2.150851,2.150851c1.191684,0 2.150851,-0.959168 2.150851,-2.150851zm0,-16.247655c0,-1.191684 -0.959168,-2.179914 -2.150851,-2.179914c-1.191684,0 -2.179914,0.98823 -2.179914,2.179914c0,1.191684 0.98823,2.150851 2.179914,2.150851c1.191684,0 2.150851,-0.959168 2.150851,-2.150851zm-66.676399,-23.455909c0,-1.191684 -0.959168,-2.150851 -2.150851,-2.150851c-1.191684,0 -2.150851,0.959168 -2.150851,2.150851c0,1.191684 0.959168,2.150851 2.150851,2.150851c1.191684,0 2.150851,-0.959168 2.150851,-2.150851zm18.107851,39.703564c0,-1.191684 -0.959168,-2.150851 -2.150851,-2.150851c-1.22076,0 -2.179914,0.959168 -2.179914,2.150851c0,1.191684 0.959168,2.150851 2.179914,2.150851c1.191684,0 2.150851,-0.959168 2.150851,-2.150851z" class="s0" fill-rule="evenodd"/>
   <path stroke="null" id="svg_5" d="m415.412099,167.105028l0,-3.400674l-37.756167,21.799167l6.801348,3.923845l0,1.627666l36.215689,-20.898138l-5.26087,-3.05188l0,0.000013zm-74.49504,49.120796l-0.029063,0l0.029063,0zm0,0l0,-1.627666l-6.801348,-3.923845l-53.742229,31.012958l2.063649,3.546001l2.063649,3.575064l56.416252,-32.582499l0.000027,-0.000013z" class="s0" fill-rule="evenodd"/>
   <path stroke="null" fill="black" id="svg_6" d="m129.872027,336.382859l-32.408108,18.718224l0,47.580331l-45.342278,26.188071l-45.313215,-26.188071l0,-52.318016l45.313215,-26.188071l41.244029,23.80469l33.10567,-19.125144l0.17439,0.029063l0,-90.335762l77.459718,-44.731905l0,-121.377782l-25.984618,-15.026895l0,-34.73335l30.111916,-17.3812l30.082853,17.3812l0,34.73335l-25.984618,15.026895l0,121.377782l77.459718,44.731905l0,94.201481l-52.405205,30.257244l0,-10.637991l-0.261592,0l43.336754,-25.02545l0,-83.3891l-72.227924,-41.709088l-72.227924,41.709088l0,83.3891l43.336754,25.02545l-0.290655,0l0,10.637991l-48.277893,-27.873876l-0.901028,1.249823l0.00004,0.000013zm324.429809,-236.622743l38.889724,22.438616l0,44.906295l-38.889724,22.438616l-38.889724,-22.438616l0,-44.906295l38.889724,-22.438616zm0,9.504433l-30.664164,17.700931l0,35.401849l30.664164,17.700931l30.664164,-17.700931l0,-35.401849l-30.664164,-17.700931zm-234.355627,291.236937l-2.150851,8.167422l-19.18327,-0.290655l-2.092725,-8.167422l23.426846,0.290655zm12.265671,-23.455909l-2.179914,8.196485l-43.685535,-0.319718l-2.092725,-8.167422l47.958175,0.290655zm-3.197207,11.713423l-2.150851,8.196485l-37.291121,-0.319718l-2.121788,-8.167422l41.56376,0.290655zm-20.752811,-373.986588l-21.886369,12.614452l0,25.287042l21.886369,12.614452l21.857306,-12.614452l0,-25.287042l-21.857306,-12.614452zm-156.082069,318.907347l-37.116717,21.421323l0,42.842633l37.116717,21.421323l37.087654,-21.421323l0,-42.842633l-37.087654,-21.421323z" class="s0" fill-rule="evenodd"/>
  </g>
 </g>
</svg>