<svg width="184" height="39" xmlns="http://www.w3.org/2000/svg" xmlns:svg="http://www.w3.org/2000/svg">
 <g>
  <title>Hive banner logo </title>
  <style>.s0 { fill: #ffff} 
		.s1 { fill: #ffff }</style>
  <g id="svg_8" stroke="null">
   <path class="s0" d="m67.436657,9.832006l0,19.412309l-4.348923,0l0,-7.958249l-8.536607,0l0,7.958249l-4.348923,0l0,-19.412309l4.348923,0l0,7.655591l8.536607,0l0,-7.655591l4.348923,0zm8.804582,0l0,19.412309l-4.348923,0l0,-19.412309l4.348923,0zm22.414555,0l-8.134644,19.412309l-4.29442,0l-8.107392,-19.412309l4.698654,0l5.718323,13.865935l5.797807,-13.865935l4.321671,0l0.000001,0zm16.105777,15.808573l0,3.603735l-14.550157,0l0,-19.412309l14.200427,0l0,3.606082l-9.876484,0l0,4.213743l8.722827,0l0,3.495811l-8.722827,0l0,4.492938l10.226215,0l-0.000001,0z" id="svg_1" stroke="null"/>
   <path class="s0" d="m133.476703,9.832006l0,19.412309l-1.959854,0l0,-8.957722l-11.759125,0l0,8.957722l-1.984835,0l0,-19.412309l1.984835,0l0,8.652719l11.759125,0l0,-8.652719l1.959854,0zm13.689457,19.578888q-3.651733,0 -5.691071,-2.16318q-2.039338,-2.16318 -2.039338,-6.294806l0,-11.120902l1.984835,0l0,11.038786q0,3.383194 1.478407,5.046637q1.476136,1.663443 4.267168,1.663443q2.818284,0 4.29442,-1.663443q1.476136,-1.663443 1.476136,-5.046637l0,-11.038786l1.932602,0l0,11.120902q0,4.131626 -2.025713,6.294806q-2.025713,2.16318 -5.677445,2.16318l-0.000001,0zm26.979221,-1.940292l0,1.773713l-13.289764,0l0,-19.412309l12.88553,0l0,1.773713l-10.898424,0l0,6.907159l9.717516,0l0,1.745559l-9.717516,0l0,7.212163l11.302658,0l0,0.000002z" id="svg_2" fill="black" stroke="null"/>
  </g>
  <g id="svg_9" stroke="null">
   <path  opacity="0.5"  fill-rule="evenodd" class="s1" d="m20.518596,7.65681zm12.875631,7.433601l0,15.223771l-13.182194,7.611885l-10.103522,-5.833387l1.817634,-1.05014l0,-1.66544l8.285888,4.785421l9.923063,-5.729025l0,-11.460225l-9.616501,-5.550741l0,-3.76572l12.875631,7.433601l0.000001,0zm-13.490931,-3.667881l-9.616501,5.550741l0,9.209925l-1.752408,-1.013179l-1.506723,0.871855l0,-10.951461l12.875631,-7.433601l0,3.76572l0.000001,0z" id="svg_3" fill="black" stroke="null"/>
   <path fill-rule="evenodd" class="s0" d="m23.512474,24.62864c0,0.032613 -0.010871,0.060878 -0.032613,0.08262l-0.419621,0.421795c0.006523,0.02609 0.010871,0.052181 0.010871,0.080446c0,0.165239 -0.134801,0.30004 -0.30004,0.30004c-0.165239,0 -0.297866,-0.134801 -0.297866,-0.30004c0,-0.165239 0.134801,-0.297866 0.297866,-0.297866c0.052181,0 0.102188,0.010871 0.143497,0.034787l0.373963,-0.369615l0,-1.611085c-0.128278,-0.04131 -0.204375,-0.152194 -0.204375,-0.282646c0,-0.165239 0.132626,-0.30004 0.297866,-0.30004c0.165239,0 0.295692,0.134801 0.295692,0.30004c0,0.115233 -0.052181,0.215246 -0.165239,0.265253l0,1.676311l-0.000001,0zm-2.404669,4.070108l-0.304388,0l0,-5.528999c0,-0.039136 0.017394,-0.076097 0.045658,-0.104362l0.676177,-0.671829c-0.019568,-0.045658 -0.030439,-0.095665 -0.030439,-0.147846c0,-0.21742 0.17611,-0.393531 0.393531,-0.393531c0.215246,0 0.391357,0.17611 0.391357,0.393531c0,0.215246 -0.17611,0.391357 -0.391357,0.391357c-0.056529,0 -0.106536,-0.013045 -0.154368,-0.034787l-0.626171,0.626171l0,0.956649l0.960998,-0.960998c-0.004348,-0.017394 -0.008697,-0.034787 -0.008697,-0.054355c0,-0.165239 0.134801,-0.297866 0.297866,-0.297866c0.165239,0 0.30004,0.132626 0.30004,0.297866c0,0.165239 -0.134801,0.30004 -0.30004,0.30004c-0.039136,0 -0.071749,-0.006523 -0.104362,-0.021742l-1.145805,1.147979c0,0 0,4.102721 0,4.102721l0,0.000001zm-0.800107,0l0,-6.566094c0,-0.039136 0.017394,-0.076097 0.043484,-0.102188l0.578338,-0.578338c-0.034787,-0.063052 -0.054355,-0.136975 -0.054355,-0.215246c0,-0.254382 0.206549,-0.458757 0.460931,-0.458757c0.252208,0 0.458757,0.204375 0.458757,0.458757c0,0.252208 -0.206549,0.458757 -0.458757,0.458757c-0.069575,0 -0.139149,-0.015219 -0.197852,-0.043484l-0.541377,0.541377l0,6.505216l-0.289169,0zm-0.480499,0l0,-6.505216l-0.545725,-0.539202c-0.058703,0.02609 -0.128278,0.04131 -0.195678,0.04131c-0.252208,0 -0.460931,-0.206549 -0.460931,-0.458757c0,-0.254382 0.206549,-0.458757 0.458757,-0.458757c0.252208,0 0.458757,0.204375 0.458757,0.458757c0,0.078271 -0.019568,0.154368 -0.056529,0.21742l0.580512,0.576164c0.028265,0.02609 0.047832,0.063052 0.047832,0.102188l0,6.566094l-0.286995,0l0,-0.000001zm-0.208724,0l-0.286995,0l0,-4.10707l-1.152328,-1.143631c-0.034787,0.015219 -0.073923,0.021742 -0.113059,0.021742c-0.165239,0 -0.302214,-0.134801 -0.302214,-0.30004c0,-0.165239 0.134801,-0.30004 0.297866,-0.30004c0.165239,0 0.30004,0.134801 0.30004,0.30004c0,0.019568 0.004348,0.036961 0.002174,0.054355l0.96752,0.958824l0,-0.954475l-0.634867,-0.626171c-0.047832,0.021742 -0.106536,0.034787 -0.160891,0.034787c-0.21742,0 -0.393531,-0.17611 -0.393531,-0.391357c0,-0.21742 0.173936,-0.393531 0.389182,-0.393531c0.21742,0 0.393531,0.17611 0.393531,0.393531c0,0.052181 -0.013045,0.104362 -0.032613,0.15002l0.678351,0.669655c0.028265,0.028265 0.047832,0.065226 0.047832,0.102188l0,5.531173l0.000002,0zm3.924437,-6.011672c0,-0.089142 -0.071749,-0.160891 -0.163065,-0.160891c-0.089142,0 -0.160891,0.071749 -0.160891,0.160891c0,0.089142 0.071749,0.160891 0.160891,0.160891c0.091317,0 0.163065,-0.071749 0.163065,-0.160891zm-1.428451,-0.441363c0,-0.126104 -0.100013,-0.228291 -0.226117,-0.228291c-0.12393,0 -0.226117,0.102188 -0.226117,0.228291c0,0.12393 0.102188,0.226117 0.226117,0.226117c0.126104,0 0.226117,-0.102188 0.226117,-0.226117zm0.406576,0.924036c0,-0.089142 -0.073923,-0.160891 -0.163065,-0.160891c-0.089142,0 -0.160891,0.071749 -0.160891,0.160891c0,0.089142 0.071749,0.160891 0.160891,0.160891c0.089142,0 0.163065,-0.071749 0.163065,-0.160891zm-3.763546,-0.924036c0,-0.126104 -0.100013,-0.228291 -0.226117,-0.228291c-0.12393,0 -0.226117,0.102188 -0.226117,0.228291c0,0.12393 0.102188,0.226117 0.226117,0.226117c0.126104,0 0.226117,-0.102188 0.226117,-0.226117zm-0.534854,0.924036c0,-0.089142 -0.071749,-0.160891 -0.160891,-0.160891c-0.089142,0 -0.160891,0.071749 -0.160891,0.160891c0,0.089142 0.071749,0.160891 0.160891,0.160891c0.089142,0 0.160891,-0.071749 0.160891,-0.160891zm0.608777,-1.932867c0,0.139149 0.113059,0.252208 0.252208,0.252208c0.052181,0 0.102188,-0.017394 0.141323,-0.043484l0.0674,-0.0674c0.028265,-0.04131 0.043484,-0.089142 0.043484,-0.141323c0,-0.139149 -0.113059,-0.252208 -0.252208,-0.252208c-0.139149,0 -0.252208,0.113059 -0.252208,0.252208l0.000001,-0.000001zm2.504682,0.252208c0.139149,0 0.252208,-0.113059 0.252208,-0.252208c0,-0.139149 -0.113059,-0.252208 -0.252208,-0.252208c-0.139149,0 -0.252208,0.113059 -0.252208,0.252208c0,0.056529 0.019568,0.110884 0.052181,0.152194l0.045658,0.045658c0.043484,0.034787 0.095665,0.054355 0.154368,0.054355l0.000001,0.000001zm-3.389583,3.726584c0,0.165239 -0.134801,0.297866 -0.30004,0.297866c-0.165239,0 -0.297866,-0.134801 -0.297866,-0.297866q0,-0.04131 0.010871,-0.080446l-0.419621,-0.421795c-0.021742,-0.023916 -0.028265,-0.052181 -0.028265,-0.084794l0,-1.676311c-0.080446,-0.050007 -0.165239,-0.15002 -0.165239,-0.265253c0,-0.165239 0.130452,-0.30004 0.295692,-0.30004c0.165239,0 0.297866,0.134801 0.297866,0.30004c0,0.132626 -0.076097,0.243511 -0.204375,0.282646l0,1.611085l0.369615,0.369615c0.043484,-0.021742 0.091317,-0.034787 0.141323,-0.034787c0.165239,0 0.30004,0.134801 0.30004,0.30004l-0.000001,0zm-0.136975,-0.002174c0,-0.089142 -0.071749,-0.160891 -0.163065,-0.160891c-0.089142,0 -0.160891,0.071749 -0.160891,0.160891c0,0.091317 0.071749,0.163065 0.160891,0.163065c0.091317,0 0.163065,-0.071749 0.163065,-0.163065zm0.289169,-0.771842c0,-0.165239 0.132626,-0.30004 0.297866,-0.30004c0.165239,0 0.304388,0.134801 0.304388,0.30004c0,0.115233 -0.058703,0.215246 -0.156543,0.265253l0,0.6827c0.097839,0.050007 0.156543,0.152194 0.156543,0.267427c0,0.165239 -0.139149,0.30004 -0.304388,0.30004c-0.165239,0 -0.295692,-0.134801 -0.295692,-0.30004c0,-0.130452 0.076097,-0.243511 0.204375,-0.282646l0,-0.650087c-0.128278,-0.04131 -0.206549,-0.152194 -0.206549,-0.282646l0,-0.000001zm0.456583,0c0,-0.089142 -0.071749,-0.163065 -0.163065,-0.163065c-0.089142,0 -0.160891,0.073923 -0.160891,0.163065c0,0.089142 0.071749,0.160891 0.160891,0.160891c0.091317,0 0.163065,-0.071749 0.163065,-0.160891zm3.770068,1.21538c0,0.165239 -0.134801,0.30004 -0.30004,0.30004c-0.165239,0 -0.302214,-0.134801 -0.302214,-0.30004c0,-0.115233 0.076097,-0.215246 0.156543,-0.265253l0,-0.687048c-0.080446,-0.050007 -0.156543,-0.15002 -0.156543,-0.263079c0,-0.165239 0.136975,-0.30004 0.302214,-0.30004c0.165239,0 0.297866,0.134801 0.297866,0.30004c0,0.132626 -0.076097,0.243511 -0.204375,0.282646l0,0.647913c0.128278,0.039136 0.206549,0.152194 0.206549,0.284821zm0.608777,-0.441363c0,-0.091317 -0.071749,-0.163065 -0.160891,-0.163065c-0.089142,0 -0.160891,0.071749 -0.160891,0.163065c0,0.089142 0.071749,0.160891 0.160891,0.160891c0.089142,0 0.160891,-0.071749 0.160891,-0.160891zm-0.745752,0.441363c0,-0.089142 -0.071749,-0.160891 -0.160891,-0.160891c-0.089142,0 -0.160891,0.071749 -0.160891,0.160891c0,0.089142 0.071749,0.160891 0.160891,0.160891c0.089142,0 0.160891,-0.071749 0.160891,-0.160891zm0,-1.21538c0,-0.089142 -0.071749,-0.163065 -0.160891,-0.163065c-0.089142,0 -0.163065,0.073923 -0.163065,0.163065c0,0.089142 0.073923,0.160891 0.163065,0.160891c0.089142,0 0.160891,-0.071749 0.160891,-0.160891zm-4.987622,-1.754582c0,-0.089142 -0.071749,-0.160891 -0.160891,-0.160891c-0.089142,0 -0.160891,0.071749 -0.160891,0.160891c0,0.089142 0.071749,0.160891 0.160891,0.160891c0.089142,0 0.160891,-0.071749 0.160891,-0.160891zm1.354529,2.969962c0,-0.089142 -0.071749,-0.160891 -0.160891,-0.160891c-0.091317,0 -0.163065,0.071749 -0.163065,0.160891c0,0.089142 0.071749,0.160891 0.163065,0.160891c0.089142,0 0.160891,-0.071749 0.160891,-0.160891z" id="svg_4" stroke="null"/>
   <path fill-rule="evenodd" class="s0" d="m35.709753,13.420623l0,-0.254382l-2.82429,1.630652l0.508764,0.293517l0,0.121755l2.709057,-1.563252l-0.393531,-0.228291l0,0.000001zm-5.572483,3.674403l-0.002174,0l0.002174,0zm0,0l0,-0.121755l-0.508764,-0.293517l-4.020102,2.319875l0.154368,0.265253l0.154368,0.267427l4.220128,-2.437282l0.000002,-0.000001z" id="svg_5" stroke="null"/>
   <path fill-rule="evenodd" class="s0" d="m14.350382,26.083182l-2.424237,1.400187l0,3.559171l-3.391757,1.958957l-3.389583,-1.958957l0,-3.913566l3.389583,-1.958957l3.085194,1.780672l2.476417,-1.430626l0.013045,0.002174l0,-6.757423l5.794251,-3.346099l0,-9.079472l-1.943738,-1.124063l0,-2.598173l2.252474,-1.300173l2.2503,1.300173l0,2.598173l-1.943738,1.124063l0,9.079472l5.794251,3.346099l0,7.046592l-3.920088,2.263345l0,-0.795758l-0.019568,0l3.241737,-1.871989l0,-6.237789l-5.402895,-3.119982l-5.402895,3.119982l0,6.237789l3.241737,1.871989l-0.021742,0l0,0.795758l-3.611351,-2.085061l-0.0674,0.093491l0.000003,0.000001zm24.268456,-17.700188l2.909084,1.678485l0,3.359144l-2.909084,1.678485l-2.909084,-1.678485l0,-3.359144l2.909084,-1.678485zm0,0.710964l-2.293784,1.32409l0,2.648179l2.293784,1.32409l2.293784,-1.32409l0,-2.648179l-2.293784,-1.32409zm-17.5306,21.785516l-0.160891,0.610951l-1.434974,-0.021742l-0.156543,-0.610951l1.752408,0.021742zm0.917514,-1.754582l-0.163065,0.613125l-3.267827,-0.023916l-0.156543,-0.610951l3.587435,0.021742zm-0.239162,0.876204l-0.160891,0.613125l-2.789503,-0.023916l-0.158717,-0.610951l3.109111,0.021742zm-1.552381,-27.975472l-1.637175,0.943604l0,1.891557l1.637175,0.943604l1.635001,-0.943604l0,-1.891557l-1.635001,-0.943604zm-11.675471,23.855357l-2.776457,1.602388l0,3.204775l2.776457,1.602388l2.774283,-1.602388l0,-3.204775l-2.774283,-1.602388z" id="svg_6" fill="black"/>
  </g>
 </g>
</svg>